# xmcd
#
# Track frame offsets: 
#        150
#        17459
#        33269
#        54785
#        73823
#        92321
#        108713
#        121440
#        140932
#        167573
#        182423
#        203094
#        220605
#        237828
#        256257
#
# Disc length: 3647 seconds
#
# Revision: 0
# Processed by: cddbd v1.5.2PL0 Copyright (c) Steve Scherf et al.
# Submitted via: ExactAudioCopyFreeDBPlugin 1.0
#
DISCID=c50e3d0f
DTITLE=宋祖英 - 宋祖英-最美的歌唱 CD2
DYEAR=1900
DGENRE=中文流行曲
TTITLE0=阳光乐章
TTITLE1=等你来
TTITLE2=东方姑娘
TTITLE3=月亮妹妹
TTITLE4=茉莉花
TTITLE5=小背篓
TTITLE6=好日子
TTITLE7=又唱浏阳河
TTITLE8=湘女多情
TTITLE9=你好吗
TTITLE10=望月
TTITLE11=好收成
TTITLE12=月亮花儿开
TTITLE13=阿公的酒碗
TTITLE14=侗锦芦笙和兰花
EXTD=
EXTT0=
EXTT1=
EXTT2=
EXTT3=
EXTT4=
EXTT5=
EXTT6=
EXTT7=
EXTT8=
EXTT9=
EXTT10=
EXTT11=
EXTT12=
EXTT13=
EXTT14=
PLAYORDER=
